<svg id="Calque_1" data-name="Calque 1" xmlns="http://www.w3.org/2000/svg" viewBox="0 0 716.32 318.5"><defs><style>.cls-1{fill:none;stroke:#1d1d1b;stroke-miterlimit:10;}</style></defs><line class="cls-1" y1="84.67" x2="47.92" y2="84.67"/><line class="cls-1" x1="47.92" y1="201.33" x2="47.92" y2="84.67"/><line class="cls-1" x1="304.79" y1="209.71" x2="352.71" y2="209.71"/><line class="cls-1" x1="352.71" y1="240.5" x2="352.71" y2="209.71"/><line class="cls-1" x1="304.79" y1="271.33" x2="352.71" y2="271.33"/><line class="cls-1" x1="352.71" y1="240.54" x2="352.71" y2="271.33"/><line class="cls-1" x1="716.32" y1="161.44" x2="668.4" y2="161.44"/><line class="cls-1" x1="668.4" y1="130.65" x2="668.4" y2="161.44"/><line class="cls-1" x1="716.32" y1="99.82" x2="668.4" y2="99.82"/><line class="cls-1" x1="668.4" y1="130.61" x2="668.4" y2="99.82"/><line class="cls-1" x1="304.79" y1="0.5" x2="352.71" y2="0.5"/><line class="cls-1" x1="352.71" y1="24.51" x2="352.71" y2="0.5"/><line class="cls-1" x1="304.79" y1="48.54" x2="352.71" y2="48.54"/><line class="cls-1" x1="352.71" y1="24.53" x2="352.71" y2="48.54"/><line class="cls-1" y1="318" x2="47.92" y2="318"/><line class="cls-1" x1="47.92" y1="201.33" x2="47.92" y2="318"/><line class="cls-1" x1="514.58" y1="237.5" x2="47.92" y2="237.5"/><line class="cls-1" x1="668.4" y1="133" x2="483.75" y2="133"/><line class="cls-1" x1="509.04" y1="106.82" x2="509.04" y2="23.53"/><line class="cls-1" x1="708.33" y1="24.51" x2="354.42" y2="24.51"/></svg>